<?xml version="1.0" encoding="utf-8"?>
<!-- Generator: Adobe Illustrator 22.0.1, SVG Export Plug-In . SVG Version: 6.00 Build 0)  -->
<svg version="1.1" id="Layer_1" xmlns="http://www.w3.org/2000/svg" xmlns:xlink="http://www.w3.org/1999/xlink" x="0px" y="0px"
	 viewBox="0 0 223.2 261.6" style="enable-background:new 0 0 223.2 261.6;" xml:space="preserve">
<style type="text/css">
	.st0{fill:#0386F1;}
</style>
<g>
	<path class="st0" d="M8,58.4c0.6-0.2,0.5-0.8,0.7-1.2c1.7-3.7,4.5-5.8,8.7-5.9c6.5-0.1,13.1,0,19.6,0c1.2,0,2.3-0.2,3.3-0.8
		C63.2,39.1,86,27.7,108.9,16.3c1.1-0.5,1.7-1.1,1.7-2.4c0-2,1.4-3.2,3.1-3.2s3,1.3,3,3.2c0,1.3,0.6,1.8,1.6,2.3
		c23.1,11.5,46.1,23,69.1,34.5c0.9,0.5,1.8,0.6,2.8,0.6c6.3,0,12.5,0,18.8,0c6.6,0,10.3,3.8,10.3,10.4c0,45.4,0,90.9,0,136.3
		c0,6.5-3.8,10.4-10.4,10.4c-38.8,0-77.7,0-116.5,0c-0.7,0-1.5,0-2.2-0.2c-1.5-0.4-2.3-1.5-2.2-3.1c0.1-1.5,0.9-2.6,2.5-2.8
		c0.8-0.1,1.6-0.1,2.5-0.1c38.4,0,76.7,0,115.1,0c4.3,0,5.1-0.8,5.1-5c0-45,0-89.9,0-134.9c0-4-0.8-4.8-4.8-4.8
		c-63.1,0-126.2,0-189.3,0c-3.9,0-4.7,0.9-4.7,4.7c0,45.1,0,90.2,0,135.3c0,3.8,0.9,4.7,4.8,4.7c19.2,0,38.4,0,57.5,0
		c0.6,0,1.2,0,1.9,0c2,0.1,3.2,1.2,3.2,3s-1.2,3-3.1,3.1c-0.6,0.1-1.2,0-1.9,0c-18.8,0-37.5-0.1-56.3,0.1
		c-5.9,0.1-10.1-1.6-12.3-7.4C8,153.5,8,105.9,8,58.4z M173.7,51.2c0-0.1,0.1-0.2,0.1-0.4c-19.1-9.5-38.2-19.1-57.3-28.6
		c-2.4,2.3-3,2.3-6.1,0.1c-19,9.5-38,19-57.1,28.5c0.1,0.1,0.1,0.2,0.2,0.3C93.6,51.2,133.7,51.2,173.7,51.2z"/>
	<path class="st0" d="M27.1,70.3c0,39.8,0,79.3,0,119c57.7,0,115.3,0,173.1,0c0-39.6,0-79.2,0-118.8c-0.7-0.4-1.4-0.2-2.2-0.2
		c-26.3,0-52.7,0-79,0c-0.8,0-1.7,0-2.4-0.2c-1.6-0.5-2.3-1.6-2.2-3.3c0.2-1.6,1.1-2.5,2.7-2.6c0.7-0.1,1.4,0,2.1,0
		c26.8,0,53.6,0,80.4,0c5.1,0,6.9,1.7,6.9,6.9c0,39.3,0,78.5,0,117.8c0,5-1.8,6.8-6.8,6.8c-57.3,0-114.7,0-172,0
		c-5,0-6.8-1.8-6.8-6.8c0-39.3,0-78.6,0-118c0-4.9,1.8-6.7,6.7-6.7c25.4,0,50.7,0,76.1,0c0.5,0,1.1,0,1.6,0c1.8,0.1,2.8,1.2,2.9,2.9
		c0.1,1.6-0.9,2.7-2.5,3.1c-0.7,0.2-1.5,0.1-2.3,0.1C78,70.3,52.6,70.3,27.1,70.3z"/>
	<path class="st0" d="M134.9,136.8c-5,0-10,0-15,0c-5.2,0-7.5-2.3-7.5-7.5c0-6.1,0-12.2,0-18.3c0-4.5,2.5-7,7-7
		c18.4,0,36.8,0,55.2,0c4.6,0,7.1,2.5,7.1,7.1c0,3.4,0,6.7,0,10.1c0,0.1,0,0.3,0.1,0.5c3.2,1,4.4,3.5,4.9,6.8
		c1.9,12.3,3.9,24.7,5.9,37c0.7,4-1.6,7.3-5.6,7.9c-12.7,2.1-25.5,4.1-38.2,6.1c-4.2,0.7-7.3-1.7-8-6c-1.9-11.9-3.8-23.8-5.7-35.8
		C135.1,137.5,135,137.3,134.9,136.8z M147.1,173.5c13.3-2.1,26.4-4.2,39.5-6.3c-2.1-13.3-4.2-26.3-6.3-39.5
		c-3.8,0.6-7.3,1.2-10.9,1.7c-0.9,0.1-1.2,0.7-1.6,1.4c-3.4,6.7-11.3,7.9-16.7,2.6c-0.5-0.5-0.9-1-1.7-0.8c-2.8,0.5-5.6,0.9-8.6,1.4
		C142.9,147.3,145,160.3,147.1,173.5z M148.1,126.6c0.2-1,0.3-2,0.6-2.9c1.2-4,3.9-6.6,8.1-7.3c4-0.7,7.8,0.4,9.7,3.8
		c1.8,3.3,4,3.1,6.8,2.4c0.7-0.2,1.4-0.3,2.1-0.4c0-4.1,0-8,0-11.9c-19,0-37.9,0-56.7,0c0,6.8,0,13.5,0,20.4c5.5,0,10.9,0,16.3,0
		c0.6,0,1-0.3,1.4-0.8c1.2-1.4,2.9-2,4.7-2.2C143.4,127.3,145.8,126.9,148.1,126.6z M154.5,126.3c-0.1,2.2,1.7,4.1,3.9,4.2
		c2.2,0.1,4.3-1.8,4.3-4s-1.8-4.1-4-4.1C156.5,122.3,154.6,124.1,154.5,126.3z"/>
	<path class="st0" d="M78.7,86.8c3.6,0.6,7,1.1,10.5,1.7c4.1,0.6,6.4,3.9,5.7,8c-2,12.6-4,25.2-6,37.8c-0.9,5.7-3.6,7.7-9.5,6.7
		c-12.3-2-24.5-3.9-36.8-5.9c-5.4-0.9-7.4-3.4-6.5-9c2-12.8,4-25.6,6.1-38.4c0.6-3.9,3.3-5.9,7.3-5.5c2.8,0.3,5.6,0.8,8.5,1.3
		c1.1-2.9,3-5.3,6.1-6.5c2-0.8,4.1-1.1,6.2-0.5C75,77.5,77.8,80.9,78.7,86.8z M48.3,88.3c-2.2,13.6-4.3,26.9-6.5,40.5
		c13.6,2.2,27,4.3,40.5,6.5c2.2-13.6,4.3-27,6.5-40.5c-3.7-0.6-7.4-1.1-11-1.8c-1-0.2-1.6,0.1-2.3,0.8c-5.4,5.4-13.6,3.9-17-2.9
		c-0.2-0.4-0.2-1.1-0.9-1.2C54.6,89.3,51.6,88.8,48.3,88.3z M72.3,86.6c0-2.2-2-4.2-4.3-4.2s-4.2,2-4.3,4.2c0,2.3,2,4.4,4.4,4.3
		C70.4,90.8,72.3,88.8,72.3,86.6z"/>
	<path class="st0" d="M85,163.2c0-10.4,8.4-18.7,18.8-18.6c10.4,0,18.6,8.4,18.6,18.8c-0.1,10.3-8.4,18.6-18.7,18.6
		C93.3,181.9,85,173.5,85,163.2z M116.2,163.2c0-6.9-5.5-12.5-12.3-12.5c-7,0-12.6,5.5-12.6,12.5s5.6,12.6,12.6,12.5
		C110.6,175.7,116.1,170.1,116.2,163.2z"/>
	<path class="st0" d="M150.3,93.5c-9,0-18,0-27,0c-1.3,0-2.5-0.1-3.3-1.3c-1.4-1.8-0.4-4.3,1.8-4.8c0.7-0.2,1.4-0.1,2-0.1
		c17.8,0,35.6,0,53.3,0c0.5,0,1,0,1.4,0c1.9,0.2,3.1,1.5,3,3.3c-0.1,1.6-1.3,2.8-3.1,2.9c-2.7,0.1-5.4,0-8,0
		C163.8,93.5,157.1,93.5,150.3,93.5z"/>
	<path class="st0" d="M55.8,161.2c-3.6,0-7.3,0-10.9,0c-2.3,0-3.6-1.1-3.7-3c-0.1-1.9,1.3-3.2,3.7-3.2c7.3,0,14.7,0,22,0
		c2.3,0,3.8,1.3,3.7,3.2c-0.1,1.8-1.4,2.9-3.7,3C63.3,161.2,59.6,161.2,55.8,161.2z"/>
	<path class="st0" d="M56.1,168c3.6,0,7.3,0,10.9,0c2.3,0,3.6,1.2,3.7,3c0.1,1.9-1.4,3.2-3.7,3.2c-7.3,0-14.7,0-22,0
		c-2.3,0-3.7-1.3-3.7-3.2c0.1-1.9,1.4-2.9,3.7-2.9C48.7,168,52.4,168,56.1,168z"/>
	<path class="st0" d="M154.1,150c-1.9,0-3.1-0.8-3.4-2.6c-0.3-1.7,0.6-3.2,2.4-3.5c6.4-1,12.9-2,19.3-2.9c1.7-0.2,3.1,1,3.4,2.7
		c0.2,1.6-0.8,3.1-2.6,3.4c-5.3,0.9-10.6,1.6-15.8,2.4C156.2,149.7,155.1,149.9,154.1,150z"/>
	<path class="st0" d="M174.1,154.5c2.1,0,3.4,1,3.7,2.7c0.2,1.6-0.8,3.1-2.6,3.4c-2.6,0.5-5.1,0.8-7.7,1.2c-1.7,0.2-3.2-1-3.4-2.6
		c-0.2-1.7,0.6-3.1,2.3-3.4C169,155.2,171.7,154.9,174.1,154.5z"/>
	<path class="st0" d="M57.8,102c6,1,12.5,2.1,19.1,3.3c1.8,0.3,2.7,1.9,2.4,3.5c-0.3,1.7-1.8,2.7-3.7,2.4
		c-5.6-0.9-11.2-1.9-16.8-2.8c-0.8-0.1-1.6-0.2-2.4-0.4c-1.8-0.4-2.7-1.6-2.5-3.5C54,102.9,55.4,101.9,57.8,102z"/>
	<path class="st0" d="M55.1,115.7c4.3,0.7,9,1.5,13.7,2.3c1.9,0.3,3.8,0.6,5.7,1c1.9,0.4,2.9,1.9,2.5,3.6c-0.3,1.7-1.9,2.7-3.7,2.4
		c-6.3-1-12.6-2.1-18.8-3.2c-1.9-0.3-3.1-1.8-2.9-3.4C51.6,116.8,52.9,115.7,55.1,115.7z"/>
</g>
</svg>
