<?xml version="1.0" encoding="utf-8"?>
<!-- Generator: Adobe Illustrator 22.0.1, SVG Export Plug-In . SVG Version: 6.00 Build 0)  -->
<svg version="1.1" id="Layer_1" xmlns="http://www.w3.org/2000/svg" xmlns:xlink="http://www.w3.org/1999/xlink" x="0px" y="0px"
	 viewBox="0 0 374.3 235.4" style="enable-background:new 0 0 374.3 235.4;" xml:space="preserve">
<style type="text/css">
	.st0{fill:#0386F1;}
</style>
<g>
	<path class="st0" d="M118.5,33c-0.1-9.4,2.8-17,12-21.1c2-0.9,3.7-2.2,5.6-3.3c6.6-3.9,8.6-3.5,13,3.1c5.4,8,10.7,16.1,16,24.1
		c3.6,5.4,3.2,7.5-2.1,11.7c-2.5,2-4.9,4-7.5,5.8c-3.8,2.7-4.2,6-2,10c6.4,11.7,15.4,21.2,25,30.3c6.3,6,13.1,11.3,20.7,15.5
		c4.2,2.3,7.5,1.9,10.3-2.2c2.1-3,4.5-5.8,6.7-8.7c2.6-3.3,5.8-3.9,9.2-1.6c9.3,6.1,18.6,12.3,27.8,18.6c3.6,2.4,4.4,5.7,2,9.5
		c-0.8,1.3-1.7,2.5-2.3,3.9c-7.5,15.7-15.9,17.6-34,14.3c-15.8-2.9-29-11.5-41.2-21.5c-21-17.2-39.9-36.3-52.2-61
		C121.2,51.7,118.7,42.6,118.5,33z"/>
	<path class="st0" d="M136.2,190.6c0,8.5,0,16.9,0,25.4c0,1.5,0.1,3-0.1,4.5c-0.5,3-2,5-5.3,4.8c-3-0.2-4.3-2.3-4.4-5.1
		c-0.1-4.2,0-8.3,0-12.5c0-9.5,0.1-19,0-28.5c0-3.5,0.8-6.4,4.3-7.6c3.6-1.2,6,0.9,7.8,3.8c6,9.2,12.1,18.3,18.2,27.5
		c0.9,1.4,1.9,2.7,3.7,5.2c0-7.3,0-13.1,0-19c0-4.3-0.1-8.7,0.1-13c0.1-2.8,1.6-4.7,4.6-4.8c2.8-0.1,4.3,1.6,4.8,4.2
		c0.2,1,0.3,2,0.3,3c0,13,0,26,0,39c0,3.2-0.3,6.6-4.2,7.6c-3.7,1-6.4-1-8.4-4c-5.7-8.8-11.4-17.6-17.2-26.4c-1-1.5-2-3-3-4.5
		C136.9,190.4,136.6,190.5,136.2,190.6z"/>
	<path class="st0" d="M91.2,225.2c-15.9,0-25.8-10.6-25.7-27.3c0.1-16.5,9.9-26.7,25.8-26.7c15.8,0,25.6,10.3,25.6,26.8
		C116.8,215.1,107.2,225.3,91.2,225.2z M106.2,198.3c-0.2-3.3-0.5-6.6-1.8-9.8c-2.5-6.2-7.4-9.5-13.9-9.3c-6,0.2-10.9,3.8-12.8,10
		c-2.1,6.5-2.1,13.1,0.7,19.5c3.9,8.9,15,11.4,22,5C105,209.7,105.9,204.1,106.2,198.3z"/>
	<path class="st0" d="M231.9,212.2c-1.4,3.4-2.6,6.4-3.9,9.5c-1.2,2.8-3.2,4.4-6.3,3.2c-2.9-1.1-4.2-3.5-3-6.5
		c5.6-14.4,11.3-28.8,17-43.1c1.2-2.9,3.7-4.1,6.9-4.1c3.9,0.1,6,2.5,7.4,5.7c3.8,9.4,7.6,18.8,11.4,28.2c1.6,4,3.3,8,4.8,12
		c1.2,3.1,0.9,6.1-2.5,7.6c-3.6,1.5-6.3-0.5-6.9-3.7c-1.6-9.1-7.6-9.7-14.9-8.9C238.7,212.5,235.5,212.2,231.9,212.2z M250,204.1
		c-2.5-7.1-4.9-13.8-7.8-21.8c-2.8,8.2-5.1,14.8-7.6,21.8C240,204.1,244.7,204.1,250,204.1z"/>
	<path class="st0" d="M37.2,225.2c-15.7,0.1-25.2-9.6-25.2-26.4c0-10.4,3.1-19.5,13-24.7c9-4.7,18-4.2,26.5,1.5
		c3.1,2.1,5.4,5,6.6,8.6c0.9,2.8,0.6,5.5-2.4,6.8c-2.7,1.1-4.8-0.1-6.2-2.7c-0.6-1.2-1.3-2.3-2-3.4c-5.9-8.3-17.5-7.6-22.1,1.5
		c-3.7,7.4-3.5,15.2-0.7,22.8c1.9,5.2,6.1,7.8,11.6,7.9c5.5,0.2,9.6-2.3,12-7.3c0.4-0.7,0.7-1.5,1-2.3c1-2.6,2.4-5.2,5.7-4.2
		c3.7,1.1,3.9,4.1,3.2,7.3C56.3,219.3,47.7,225.2,37.2,225.2z"/>
	<path class="st0" d="M281.8,199.9c0.1,2.8,0.4,6.5,2,9.9c2.3,4.9,6.1,7.3,11.4,7.5c5.3,0.2,9.3-2.1,11.9-6.8c0.6-1,0.9-2.1,1.4-3.2
		c1.1-2.4,2.4-4.7,5.5-3.8c3.4,1,3.9,3.7,3.4,6.8c-1.3,7.4-8.5,13.5-17.5,14.9c-10.7,1.6-20.1-2.5-25-10.8c-5.7-9.8-5-25,1.5-33.7
		c5.9-7.9,16.7-11.3,26.9-8.3c6.6,1.9,11.7,5.7,13.9,12.5c0.8,2.6,0.3,5.2-2.5,6.3c-2.4,1-4.8,0.3-5.9-2.2
		c-4-9.6-11.8-10.6-16.7-9.1c-6.4,2-10,8.2-10.3,17.7C281.8,198,281.8,198.5,281.8,199.9z"/>
	<path class="st0" d="M192.8,180.2c-4.4,0-8.1,0.1-11.7,0c-2.5-0.1-4.8-0.7-4.9-3.7c-0.2-3.3,2.2-4.2,4.9-4.2
		c11.3-0.1,22.6,0,33.9,0c2.7,0,5.2,0.8,5.2,4c0,3.2-2.6,3.9-5.3,4c-3.6,0.1-7.3,0-11.6,0c0,7.9,0,15.4,0,23c0,5,0,10,0,15
		c0,3.7-0.9,6.9-5.3,6.9c-4.4,0-5.2-3.4-5.3-7c-0.1-11,0-22,0-32.9C192.8,183.8,192.8,182.3,192.8,180.2z"/>
	<path class="st0" d="M338.6,180.2c-4.1,0-7.8,0.1-11.4,0c-2.7-0.1-5.1-0.9-4.9-4.2c0.1-3,2.5-3.7,4.9-3.7c11.3,0,22.6,0,33.9,0
		c2.7,0,5.2,0.8,5.2,4c0,3.2-2.6,3.9-5.3,4c-3.6,0.1-7.3,0-11.6,0c0,7.7,0,15.1,0,22.5c0,5.2,0,10.3,0,15.5c0,3.7-0.9,6.9-5.3,6.9
		c-4.4,0-5.3-3.4-5.3-7c-0.1-11.6,0-23.3,0-34.9C338.8,182.4,338.7,181.6,338.6,180.2z"/>
</g>
</svg>
