<?xml version="1.0" encoding="utf-8"?>
<!-- Generator: Adobe Illustrator 22.0.1, SVG Export Plug-In . SVG Version: 6.00 Build 0)  -->
<svg version="1.1" id="Layer_1" xmlns="http://www.w3.org/2000/svg" xmlns:xlink="http://www.w3.org/1999/xlink" x="0px" y="0px"
	 viewBox="0 0 250.3 202.4" style="enable-background:new 0 0 250.3 202.4;" xml:space="preserve">
<style type="text/css">
	.st0{fill:#0386F1;}
</style>
<g>
	<path class="st0" d="M30.8,81.1c0.9-2.2,0.6-4.7,1-7c2.9-20.7,14.4-34.4,33.6-42c9.8-3.9,20.2-6,30.8-7.1c15.1-1.6,30.2-1.7,45.3-1
		c13.9,0.6,27.5,2.3,40.7,7c13,4.6,24,12,30.7,24.6c3.9,7.4,5.9,15.4,6.4,23.8c0.1,2,0,4,0,6.2c-12.8,0-25.6,0-38.6,0
		c-0.5-5-1.2-9.9-2.8-14.6c-3-8.9-9.2-14.4-18.3-16.7c-7.4-1.8-15-1.8-22.5-2c-10.4-0.2-20.7-0.4-31.1-0.1c-6,0.2-11.8,0.8-17.5,2.8
		C81,57.7,75.9,62.8,73,70.1c-1.9,5-2.8,10.2-3.3,15.3c-0.4,0.4-0.7,0.3-1.1,0.3c-12.1,0-24.2,0-36.4,0c-0.5,0-0.8-0.1-1.3-0.1
		C30.8,84.1,30.8,82.6,30.8,81.1z"/>
	<path class="st0" d="M30.8,89.9c0.6,0.3,1.4,0.2,2,0.2c11.6,0,23.1,0,34.6,0c0.6,0,1.3,0,2,0c0.6,8.9-3.7,12.2-10,12.8
		c-6.3,0.6-12.8,0.6-19.1-0.1c-4.8-0.5-7.4-2.8-8.9-7.4c-0.1-0.4,0-0.9-0.6-1C30.8,92.9,30.8,91.4,30.8,89.9z"/>
	<path class="st0" d="M103.2,83.5c13.5,0,26.8,0,40.4,0c0-2.4,0-4.8,0-7.3c0-2.6,0.4-3.2,2.9-3.5c4.3-0.5,8.5-0.5,12.9,0
		c1.9,0.2,2.7,1.3,2.6,3.1c0,1.7,0.2,3.3-0.1,5c-0.5,3.3,1,5.6,3,8.2c12.8,15.3,24.7,31.1,35.5,47.8c1.2,1.9,1.8,3.9,1.8,6.2
		c-0.1,9.7,0,19.6-0.1,29.3c0,4.6-2,6.6-6.6,6.6c-48.2,0-96.3,0-144.5,0c-4.7,0-6.7-2.1-6.7-6.8c0-10,0-20,0-30
		c0-1.4,0.3-2.6,0.9-3.7c3.1-5.4,6.6-10.5,10.3-15.5c9.1-12.6,18.3-25.2,28.6-36.8c0.6-0.6,0.7-1.4,0.7-2.2c0-2.8,0-5.7,0-8.4
		c0-1.7,0.7-2.6,2.3-2.8c4.5-0.6,9.1-0.6,13.6,0c1.7,0.2,2.5,1.2,2.4,2.8C103.2,78.4,103.2,80.9,103.2,83.5z M145.2,108.4
		c2.9,0,5.4-2.4,5.4-5.3s-2.5-5.4-5.4-5.3c-2.8,0-5.2,2.4-5.3,5.2C139.9,105.9,142.3,108.3,145.2,108.4z M150.6,121.5
		c0.1-2.9-2.4-5.4-5.3-5.4s-5.3,2.2-5.4,5.1s2.3,5.4,5.2,5.5C148.1,126.8,150.6,124.4,150.6,121.5z M128.6,121.4
		c0-3-2.4-5.3-5.3-5.3s-5.4,2.5-5.3,5.4c0.1,2.8,2.5,5.2,5.3,5.3C126.1,126.7,128.6,124.4,128.6,121.4z M128.6,103.1
		c0-2.9-2.4-5.4-5.3-5.3c-2.8,0-5.2,2.4-5.3,5.2c-0.1,2.9,2.4,5.4,5.3,5.4S128.6,106,128.6,103.1z M123.3,134.5
		c-3,0-5.4,2.5-5.4,5.4c0.1,2.8,2.5,5.2,5.3,5.3c2.8,0,5.3-2.4,5.3-5.2C128.6,136.8,126.3,134.5,123.3,134.5z M101.2,116.1
		c-2.9,0-5.2,2.4-5.2,5.3s2.5,5.4,5.4,5.3c2.8-0.1,5.2-2.5,5.2-5.3C106.6,118.4,104.2,116,101.2,116.1z M145.3,134.5
		c-2.9,0-5.3,2.4-5.3,5.3c0,2.8,2.4,5.2,5.2,5.3c2.9,0.1,5.4-2.4,5.4-5.3C150.7,136.8,148.3,134.5,145.3,134.5z M101.3,108.4
		c2.9,0,5.3-2.4,5.3-5.3c0-2.8-2.4-5.2-5.2-5.3c-2.9-0.1-5.4,2.3-5.4,5.2C95.9,105.9,98.3,108.4,101.3,108.4z M106.6,139.8
		c0-2.9-2.3-5.2-5.2-5.3c-3,0-5.4,2.3-5.4,5.3c0,2.9,2.5,5.4,5.4,5.3C104.3,145,106.6,142.6,106.6,139.8z"/>
	<path class="st0" d="M180.7,90.1c13,0,25.9,0,38.7,0c0.8,6.7-2.8,11.4-9.5,11.9c-6.5,0.6-13,0.6-19.5,0
		C183.5,101.4,180.3,97.5,180.7,90.1z"/>
</g>
</svg>
