<?xml version="1.0" encoding="utf-8"?>
<!-- Generator: Adobe Illustrator 22.0.1, SVG Export Plug-In . SVG Version: 6.00 Build 0)  -->
<svg version="1.1" id="Layer_1" xmlns="http://www.w3.org/2000/svg" xmlns:xlink="http://www.w3.org/1999/xlink" x="0px" y="0px"
	 viewBox="0 0 227.2 261" style="enable-background:new 0 0 227.2 261;" xml:space="preserve">
<style type="text/css">
	.st0{fill:#0788F1;}
</style>
<g>
	<path class="st0" d="M103,174.6c-19.9,0-38.8,0-58.4,0c0-22.8,0-45.3,0-68.7c-3.8,2.7-6.7,4.9-10,7.3c-6.9-8.9-13.7-17.7-20.7-26.8
		c32.8-25.2,65.4-50.2,98-75.4C123.6,20,135,28.8,147,38c1.4-4.8,0.1-9.1,1-13.6c11.2,0,22.4,0,34.1,0c0,11.9,0.1,23.7-0.1,35.5
		c-0.1,3.7,1,6.1,4.1,8.3c7.9,5.8,15.6,11.9,23.8,18.2c-7,9.1-13.7,17.8-20.6,26.8c-3.3-2.4-6.3-4.6-10-7.3c0,23.3,0,45.9,0,68.6
		c-18.7,0-37,0-55.8,0c0-16.7,0-33.3,0-50.1c-7,0-13.4,0-20.5,0C103,141.1,103,157.6,103,174.6z M111.9,54
		C94.6,67.3,77.5,80.5,60.2,93.6c-3,2.3-4.1,4.8-4,8.4c0.1,18.6,0,37.3,0.1,55.9c0,1.6-0.5,3.3,0.8,4.8c11.2,0,22.5,0,34.2,0
		c0-16.9,0-33.5,0-49.9c15,0,29.4,0,44.2,0c0,16.9,0,33.5,0,50.1c10.8,0,21,0,31.4,0c0.2-0.8,0.4-1.4,0.4-2.1c0-20.5,0-41,0.1-61.4
		c0-2.4-1.1-3.6-2.8-4.9C147.2,81.1,129.8,67.7,111.9,54z M186.9,96.7c2.1-2.8,4.1-5.3,6.3-8.1c-5.8-4.5-11.1-9-16.9-12.9
		c-4.6-3.1-6.5-6.7-6.2-12.3c0.5-9.1,0.1-18.2,0.1-27.1c-3.9,0-7.2,0-11,0c0,8.7,0,17,0,26.2C143,49.9,127.4,38,111.9,26
		C84.6,47,57.6,67.8,30.5,88.6c2.4,3,4.3,5.4,6.4,8C62.1,77.2,87,58.1,111.9,39C137.1,58.3,161.9,77.4,186.9,96.7z"/>
	<path class="st0" d="M159.2,216c-2.3,9.1-4.6,18.2-6.9,27.3c-0.5,1.9-0.9,3.9-1.5,5.8c-0.9,2.9-2.5,5-5.9,5.2
		c-3.7,0.1-5.6-2.1-6.4-5.2c-1.9-7.1-3.6-14.2-5.4-21.3c-1-4-2.1-7.9-3.9-11.7c0,9.4,0,18.9,0,28.3c0,1.5,0.1,3,0,4.5
		c-0.2,3-1.4,5.2-4.7,5.4c-3.4,0.1-5-2.1-5-5.1c-0.1-14.3-0.1-28.6,0-43c0-1.4,0.5-2.6,1.6-3.6c4.4-3.9,14.2-1.1,15.8,4.6
		c2.5,8.9,4.9,17.9,8.3,26.9c2-7.4,4.1-14.8,6.1-22.2c0.3-1.1,0.6-2.3,0.9-3.4c2-7,7.5-9.6,14.5-6.9c2.6,1,3.3,3.1,3.3,5.6
		c0,13.7,0.1,27.3,0,41c0,3.3-1.2,6.2-5.1,6c-3.9-0.2-4.6-3.1-4.6-6.4c0-10.5,0-21.1,0-31.6C159.8,216.1,159.5,216,159.2,216z"/>
	<path class="st0" d="M85.1,254.3c-15.9,0-25.8-10.6-25.7-27.3c0.1-16.6,9.9-26.7,25.7-26.7c15.8,0,25.6,10.3,25.6,26.8
		C110.8,244,101.1,254.3,85.1,254.3z M70.3,227.3c-0.1,3.4,0.5,6.6,1.8,9.7c2.3,5.5,6.3,8.9,12.4,9.2c6.3,0.3,11-2.8,13.4-8.5
		c3.1-7.2,3.1-14.6-0.3-21.7c-2.5-5.3-7-7.8-12.8-7.7c-5.9,0.1-10,3.1-12.4,8.4C70.8,220,70.1,223.6,70.3,227.3z"/>
	<path class="st0" d="M17.6,222c7.6,0,14.7,0,22.7,0c0-4.6,0-9.4,0-14.1c0-3.7,0.6-7.4,5.2-7.6c5-0.1,5.6,3.7,5.6,7.7
		c0,12.8,0,25.6,0,38.4c0,3.9-0.6,7.8-5.6,7.7c-5-0.1-5.3-4.2-5.3-8c0-5.1,0-10.2,0-15.6c-7.6,0-14.9,0-22.7,0
		c0,5.6,0.1,11.1,0,16.5c-0.1,3.7-0.8,7.4-5.6,7.1c-4.5-0.2-5-3.7-5-7.2c0-13.1,0-26.3,0-39.4c0-3.5,0.3-7,4.9-7.2
		c4.8-0.2,5.6,3.4,5.7,7.1C17.7,212.2,17.6,217,17.6,222z"/>
	<path class="st0" d="M190.5,209.3c0,4.6,0,8.4,0,13c5.8,0,11.6,0,17.3,0c1.7,0,3.3-0.1,5,0c2.4,0.1,4.3,1.2,4.3,3.8
		c0,2.9-1.9,4.1-4.5,4.1c-7.2,0.1-14.3,0-21.8,0c0,4.9,0,9.6,0,15c6.8,0,13.5,0,20.3,0c1.5,0,3-0.1,4.5,0c2.6,0.2,4.6,1.2,4.6,4.2
		c-0.1,2.6-2,3.8-4.4,3.8c-10.2,0.1-20.3,0.1-30.5,0c-3.3,0-5.2-2.1-5.2-5.5c0-13.6,0-27.3,0-40.9c0-3.7,2.2-5.5,5.7-5.5
		c9.5-0.1,19,0,28.5,0c2.8,0,5.1,0.8,5,4.2c-0.1,3.3-2.6,3.9-5.3,3.9C206.2,209.3,198.6,209.3,190.5,209.3z"/>
</g>
</svg>
