<?xml version="1.0" encoding="utf-8"?>
<!-- Generator: Adobe Illustrator 22.0.1, SVG Export Plug-In . SVG Version: 6.00 Build 0)  -->
<svg version="1.1" id="Layer_1" xmlns="http://www.w3.org/2000/svg" xmlns:xlink="http://www.w3.org/1999/xlink" x="0px" y="0px"
	 viewBox="0 0 373.8 380.8" style="enable-background:new 0 0 373.8 380.8;" xml:space="preserve">
<style type="text/css">
	.st0{fill:#0788F1;}
</style>
<path class="st0" d="M171.5,337.3c-34.7,0-67.7,0-102,0c0-39.8,0-79,0-119.9c-6.6,4.7-11.6,8.6-17.5,12.8
	c-12.1-15.5-23.9-30.9-36.2-46.7c57.2-44,114.1-87.6,171-131.5c20.4,15.7,40.4,31,61.2,47.2c2.4-8.4,0.2-15.8,1.8-23.8
	c19.6,0,39.1,0,59.5,0c0,20.8,0.2,41.4-0.2,61.9c-0.2,6.5,1.8,10.7,7.1,14.5c13.7,10.2,27.2,20.8,41.5,31.8
	c-12.3,15.8-23.9,31-35.9,46.7c-5.8-4.2-11-8.1-17.5-12.8c0,40.7,0,80.2,0,119.8c-32.6,0-64.6,0-97.4,0c0-29.1,0-58.2,0-87.4
	c-12.3,0-23.4,0-35.7,0C171.5,278.8,171.5,307.6,171.5,337.3z M187.1,126.7c-30.2,23.3-60.1,46.2-90.2,69.2c-5.2,4-7.1,8.4-6.9,14.7
	c0.2,32.5,0,65.1,0.2,97.6c0,2.7-0.8,5.8,1.5,8.4c19.6,0,39.3,0,59.6,0c0-29.6,0-58.5,0-87.1c26.2,0,51.4,0,77.1,0
	c0,29.6,0,58.5,0,87.4c18.9,0,36.7,0,54.8,0c0.3-1.5,0.6-2.4,0.6-3.7c0-35.7,0-71.6,0.2-107.1c0-4.2-1.9-6.3-4.8-8.6
	C248.6,174.1,218.3,150.6,187.1,126.7z M318,201.2c3.7-4.8,7.1-9.2,11-14.1c-10.2-7.9-19.4-15.7-29.6-22.5
	c-8.1-5.3-11.3-11.6-10.8-21.5c0.8-15.8,0.2-31.8,0.2-47.4c-6.8,0-12.6,0-19.2,0c0,15.2,0,29.7,0,45.7c-28.3-22-55.4-42.8-82.6-63.7
	C139.4,114.4,92.4,150.8,45,187.2c4.2,5.2,7.4,9.4,11.2,13.9c44-33.9,87.4-67.2,130.9-100.5C231,134.2,274.3,167.6,318,201.2z"/>
<g>
	<path class="st0" d="M-216.8,319.7c-2.3,9.1-4.6,18.2-6.9,27.3c-0.5,1.9-0.9,3.9-1.5,5.8c-0.9,2.9-2.5,5-5.9,5.2
		c-3.7,0.1-5.6-2.1-6.4-5.2c-1.9-7.1-3.6-14.2-5.4-21.3c-1-4-2.1-7.9-3.9-11.7c0,9.4,0,18.9,0,28.3c0,1.5,0.1,3,0,4.5
		c-0.2,3-1.4,5.2-4.7,5.4c-3.4,0.1-5-2.1-5-5.1c-0.1-14.3-0.1-28.6,0-43c0-1.4,0.5-2.6,1.6-3.6c4.4-3.9,14.2-1.1,15.8,4.6
		c2.5,8.9,4.9,17.9,8.3,26.9c2-7.4,4.1-14.8,6.1-22.2c0.3-1.1,0.6-2.3,0.9-3.4c2-7,7.5-9.6,14.5-6.9c2.6,1,3.3,3.1,3.3,5.6
		c0,13.7,0.1,27.3,0,41c0,3.3-1.2,6.2-5.1,6s-4.6-3.1-4.6-6.4c0-10.5,0-21.1,0-31.6C-216.2,319.8-216.5,319.7-216.8,319.7z"/>
	<path class="st0" d="M-290.9,358c-15.9,0-25.8-10.6-25.7-27.3c0.1-16.6,9.9-26.7,25.7-26.7c15.8,0,25.6,10.3,25.6,26.8
		C-265.2,347.7-274.9,358-290.9,358z M-305.7,331c-0.1,3.4,0.5,6.6,1.8,9.7c2.3,5.5,6.3,8.9,12.4,9.2c6.3,0.3,11-2.8,13.4-8.5
		c3.1-7.2,3.1-14.6-0.3-21.7c-2.5-5.3-7-7.8-12.8-7.7c-5.9,0.1-10,3.1-12.4,8.4C-305.2,323.7-305.9,327.3-305.7,331z"/>
	<path class="st0" d="M-358.4,325.7c7.6,0,14.7,0,22.7,0c0-4.6,0-9.4,0-14.1c0-3.7,0.6-7.4,5.2-7.6c5-0.1,5.6,3.7,5.6,7.7
		c0,12.8,0,25.6,0,38.4c0,3.9-0.6,7.8-5.6,7.7s-5.3-4.2-5.3-8c0-5.1,0-10.2,0-15.6c-7.6,0-14.9,0-22.7,0c0,5.6,0.1,11.1,0,16.5
		c-0.1,3.7-0.8,7.4-5.6,7.1c-4.5-0.2-5-3.7-5-7.2c0-13.1,0-26.3,0-39.4c0-3.5,0.3-7,4.9-7.2c4.8-0.2,5.6,3.4,5.7,7.1
		C-358.3,315.9-358.4,320.7-358.4,325.7z"/>
	<path class="st0" d="M-185.5,313c0,4.6,0,8.4,0,13c5.8,0,11.6,0,17.3,0c1.7,0,3.3-0.1,5,0c2.4,0.1,4.3,1.2,4.3,3.8
		c0,2.9-1.9,4.1-4.5,4.1c-7.2,0.1-14.3,0-21.8,0c0,4.9,0,9.6,0,15c6.8,0,13.5,0,20.3,0c1.5,0,3-0.1,4.5,0c2.6,0.2,4.6,1.2,4.6,4.2
		c-0.1,2.6-2,3.8-4.4,3.8c-10.2,0.1-20.3,0.1-30.5,0c-3.3,0-5.2-2.1-5.2-5.5c0-13.6,0-27.3,0-40.9c0-3.7,2.2-5.5,5.7-5.5
		c9.5-0.1,19,0,28.5,0c2.8,0,5.1,0.8,5,4.2c-0.1,3.3-2.6,3.9-5.3,3.9C-169.8,313-177.4,313-185.5,313z"/>
</g>
</svg>
