<?xml version="1.0" encoding="utf-8"?>
<!-- Generator: Adobe Illustrator 22.0.1, SVG Export Plug-In . SVG Version: 6.00 Build 0)  -->
<svg version="1.1" id="Layer_1" xmlns="http://www.w3.org/2000/svg" xmlns:xlink="http://www.w3.org/1999/xlink" x="0px" y="0px"
	 viewBox="0 0 368 276" style="enable-background:new 0 0 368 276;" xml:space="preserve">
<style type="text/css">
	.st0{fill:#060B0B;}
	.st1{fill:#0184EF;}
</style>
<g>
	<path class="st0" d="M100.1,70.2c-1.7-1-2-2.3-1.6-4.2c1.2-5.7,2.2-11.4,3.5-17.1c1-4.4,3.7-7.6,8.4-8c3.7-0.3,4.9-2.1,4.4-5.5
		c-0.1-0.6,0.1-1.3,0.1-2c0.3-8.7,2-10.4,10.9-10.4c40.3,0,80.6,0,120.9,0c4.8,0,9.7-0.1,14.5,0c4.3,0.1,6.5,2.1,6,6.6
		c-0.3,2.5-0.3,5,0.3,7.4c0.8,3.2-0.4,5.5-3.3,7c-2.4-0.9-3.1-2.7-3.1-5.1c0-3.1,0.5-6.2-0.6-9.4c-46.6,0-92.8,0-139.4,0
		c0,25.1,0,49.9,0,75.2c5.8-2.1,9.9-5.5,13-10.2c1.6-2.5,1.4-4.9-1.9-5.9c-4.6-1.3-5.6-4.5-5.5-8.8c0.2-9.2,0.1-18.3-0.1-27.5
		c-0.1-4.5,0.7-8.3,5.5-10c1.6-0.6,2.4-1.5,2.9-3.1c0.9-3.3,3.3-4.3,6.4-4.2c9,0.1,18,0.1,27,0.1c19.8-0.1,39.7,0.1,59.5-0.5
		c6.3-0.2,11.3,0.9,15.7,5.4c2.9,3,6.4,5.3,11.4,5.3c0,12.1-0.1,23.8,0.1,35.6c0.1,4.2-0.7,6.7-5.7,6.4c-3-0.1-5.7,1.4-5.5,5
		c0.3,5.5-2.6,6.7-7.5,6.7C214.6,98.9,192.8,99,171,99c-2.6,0-5.5-0.1-5.6,3.3c-0.1,3.8,3.2,2.6,5.2,2.6c28.5,0.1,57,0.1,85.5,0
		c1.6,0,3.3,0.5,5.1-0.8c0-16.3,0.1-32.8-0.1-49.2c0-2.9,0.5-4.8,3.2-5.9c2.3,0.4,2.8,1.8,2.8,3.9c-0.1,17.8,0,35.7,0,53.5
		c0,3.4-1.7,4.8-4.9,4.7c-2.3-0.1-4.6,0-7.2,0c-3.3,11.9-6.6,23.5-9.9,35.2c-0.5,1.8-1.1,3.5-1.6,5.2c-1.4,4.7-4.4,6.3-9.2,5
		c-15.5-4.3-31.1-8.6-46.6-12.8c-0.8-0.2-1.5-0.4-2.2-0.6c-0.9,1.6,0.1,2.5,0.6,3.4c2.8,5.4,2.1,7-3.6,9.1
		c-3.7,1.3-7.5,1.4-11.3,1.7c1.3,8.1,0,9.7-8.4,11c-5.9,0.9-7.9,0.6-18.5-2.9c0,7.6-0.2,14.9,0.1,22.3c0.2,4.5-1.2,6.3-5.7,5.1
		c-0.2-9.6-0.7-19.3-0.6-28.9c0.4-19.9,4.9-38.4,18.2-54.2c7.5-8.9,4.7-20-6-26.5c-0.5,0.6-1.1,1.1-1.6,1.8
		c-5.8,7.3-11.5,14.7-17.4,21.9c-3,3.7-6.8,5-11.6,3.4c-4.6-1.5-4.7-5-4.7-8.8c0.1-12.2,0-24.3,0-36.5c0-5.9,0-11.9,0-17.7
		c-4.8-1.5-6.8,0.8-7.6,4.5c-1,4.2-1.6,8.5-2.4,12.7C104.4,67.1,104,70.1,100.1,70.2z M237.5,93.1c0.9-3.9,2.1-8.2,5.6-9.1
		c7.3-1.8,6-7,6-11.9c0-4.5-0.2-9,0.1-13.5c0.3-5.2,0.5-10-6.1-11.4c-0.7-0.1-1.5-0.9-1.8-1.6c-2.4-5.1-7-5.4-11.8-5.4
		c-28.2,0-56.3,0-84.5-0.1c-1.2,0-2.3,0-3.3,0.7c-6.9,4.4-10.6,12.6-9.1,20.5c0.6,3.2,0.4,6.2-0.1,9.4c-0.6,3.6-0.9,7.3,1.2,10.7
		c3.1,5.2,6.5,5.5,10.1,0.8c0.6-0.8,1.2-1.6,1.8-2.4c2.9-3.7,5.6-4.2,9.3-1.3c3.7,2.9,6.7,6.6,8.5,10.9c1.2,2.9,3,3.8,6.1,3.7
		c16-0.2,32-0.1,48-0.1C223.9,93.1,230.6,93.1,237.5,93.1z M235.7,111.4c-0.6-0.2-0.9-0.5-1.2-0.5c-23,0-46-0.1-68.9-0.1
		c-3.3,0-4.6,1.8-4.9,5c0.8,0.4,1.5,0.8,2.3,1.1c17.6,5.4,35.2,10.6,52.7,16.1c4.3,1.4,7.7,0.4,11.1-2.1
		C233.4,126.2,234.7,119.1,235.7,111.4z M153.2,127.8c28.1,7.9,56,15.7,84.2,23.6c3.8-13.5,7.4-26.6,11.1-39.8
		c-5.7-0.8-6.1-0.7-7.5,3c-0.9,2.5-1.6,5.1-2,7.7c-1,6.2-2.8,11.7-10,13.2c-0.7,0.2-1.6,0.7-2,1.4c-2.3,4.4-5.7,3.6-9.4,2.4
		c-18.5-5.7-37-11.4-55.5-17.1C156.1,120.4,155.5,120.7,153.2,127.8z M148.2,135.1c-3.3,5.6-4.2,10.2-4.4,15
		c-0.2,6.9,2.1,10,8.7,11.8c3.9,1,7.7,1.3,12.2-1C161.3,151.1,150.7,146.3,148.2,135.1z M154.6,133.9c4.6,14.2,14.3,19.9,25.2,15
		C178.8,141.3,177.6,140.6,154.6,133.9z"/>
	<path class="st1" d="M100.1,70.2c3.9-0.1,4.3-3,4.8-5.8c0.8-4.2,1.5-8.5,2.4-12.7c0.8-3.7,2.8-6,7.6-4.5c0,5.9,0,11.8,0,17.7
		c0,12.2,0,24.3,0,36.5c0,3.8,0.1,7.3,4.7,8.8c4.8,1.6,8.6,0.3,11.6-3.4c5.9-7.2,11.6-14.6,17.4-21.9c0.5-0.6,1.1-1.2,1.6-1.8
		c10.7,6.4,13.5,17.6,6,26.5c-13.3,15.7-17.8,34.2-18.2,54.2c-0.2,9.6,0.3,19.3,0.6,28.9c-10.9,0-21.7,0-32.6,0c0-3,0-6,0-9
		c0-19.9,1.3-39.8-3.9-59.5c-3.9-14.7-6.1-29.6-0.3-44.5c0.7-1.8-0.3-3.2-1.8-4.2C100.1,73.7,100.1,71.9,100.1,70.2z"/>
	<path class="st1" d="M264.2,48.9c-2.7,1.1-3.2,3.1-3.2,5.9c0.2,16.5,0.1,33,0.1,49.2c-1.8,1.4-3.5,0.8-5.1,0.8c-28.5,0-57,0-85.5,0
		c-2,0-5.4,1.2-5.2-2.6c0.1-3.4,3-3.3,5.6-3.3c21.8,0,43.7-0.1,65.5,0.1c4.8,0,7.7-1.2,7.5-6.7c-0.2-3.7,2.5-5.2,5.5-5
		c5,0.2,5.8-2.3,5.7-6.4c-0.2-11.8-0.1-23.6-0.1-35.6c-5.1,0-8.5-2.3-11.4-5.3c-4.4-4.5-9.4-5.6-15.7-5.4
		c-19.8,0.6-39.6,0.4-59.5,0.5c-9,0-18,0-27-0.1c-3.2,0-5.6,0.9-6.4,4.2c-0.4,1.6-1.3,2.5-2.9,3.1c-4.7,1.7-5.6,5.5-5.5,10
		c0.2,9.2,0.2,18.3,0.1,27.5c-0.1,4.3,0.9,7.4,5.5,8.8c3.2,0.9,3.5,3.4,1.9,5.9c-3.1,4.7-7.2,8.1-13,10.2c0-25.3,0-50.1,0-75.2
		c46.5,0,92.8,0,139.4,0c1.1,3.2,0.6,6.4,0.6,9.4c0,2.4,0.7,4.2,3.1,5.1C264.2,45.7,264.2,47.3,264.2,48.9z"/>
	<path class="st1" d="M188,225.7c-2.3,9.1-4.6,18.2-6.9,27.3c-0.5,1.9-0.9,3.9-1.5,5.8c-0.9,2.9-2.5,5-5.9,5.2
		c-3.7,0.2-5.6-2.1-6.4-5.2c-1.9-7.1-3.6-14.2-5.4-21.3c-1-4-2.1-7.9-3.9-11.7c0,9.9,0,19.8,0,29.7c0,1.5,0.1,3-0.2,4.5
		c-0.5,2.3-1.9,3.9-4.5,4c-2.8,0.1-4.4-1.5-4.8-4.1c-0.4-2.3-0.3-4.6-0.3-7c0-11.7,0-23.3,0-35c0-3.6,0.9-6.6,4.9-6.8
		c8-0.5,10.8-0.7,12.2,4.4c2.6,9.6,5.3,19.2,8.3,30.2c2.7-10,5.1-18.7,7.4-27.4c1.9-7,7.5-9.6,14.5-6.9c2.6,1,3.3,3.1,3.3,5.6
		c0,13.7,0,27.3,0,41c0,3.3-1.2,6.1-5.2,5.9c-3.6-0.2-4.6-2.8-4.6-6c0-10.7,0-21.3,0-32C188.6,225.9,188.3,225.8,188,225.7z"/>
	<path class="st1" d="M291.9,246.7c0-9.9,0-18.5,0-27.1c0-1.5,0-3,0-4.5c0.1-2.8,1.4-4.9,4.4-5.1c3.3-0.2,4.8,1.9,5.2,4.9
		c0.1,1,0.2,2,0.2,3c0,12.5,0,25,0,37.4c0,3.4,0.1,7.1-3.9,8.3c-4.1,1.3-7-1.1-9.1-4.4c-6.6-10.2-13.2-20.4-19.9-30.6
		c-1.8,0.8-0.9,2.3-0.9,3.4c-0.1,8.3,0,16.6-0.1,25c0,3.6-0.9,7-5.3,6.8c-4.2-0.2-4.6-3.6-4.6-6.9c0-13,0.1-26,0-38.9
		c0-3.7,0.8-6.8,4.7-7.8c3.7-1,5.9,1.3,7.7,4.1c5.9,9,11.9,18,17.9,27.1C289.1,242.8,290.1,244.2,291.9,246.7z"/>
	<path class="st1" d="M64.5,251c-1.3,3.1-2.4,6.1-3.6,9c-1.2,2.9-3,5-6.5,3.7c-3.4-1.3-4.1-4-2.8-7.4c4.9-12.4,9.7-24.8,14.5-37.1
		c0.5-1.2,1-2.5,1.5-3.7c1.3-3.2,3.3-5.3,7-5.5c3.8-0.1,6.3,1.8,7.7,5.2c5.5,13.5,11,27.1,16.4,40.7c1.2,3.1,1,6.1-2.4,7.6
		c-3.6,1.6-6.3-0.4-6.9-3.6c-1.6-9-7.5-9.8-14.9-9C71.2,251.3,67.9,251,64.5,251z M82.7,242.9c-2.6-7.3-5-13.9-7.9-21.9
		c-2.8,8.3-5.1,14.9-7.5,21.9C72.6,242.9,77.2,242.9,82.7,242.9z"/>
	<path class="st1" d="M219.3,240c0,5.3,0,9.7,0,15c7.3,0,14.5,0,21.8,0c3.2,0,7.6-0.9,7.7,3.9c0.1,4.8-4.3,4-7.6,4
		c-8.5,0.1-17-0.1-25.5,0.1c-4.8,0.1-7-2-7-6.9c0.1-12.8,0.1-25.6,0-38.4c0-4.9,2.3-6.8,7.1-6.8c8.8,0.1,17.6,0,26.5,0
		c2.8,0,5.7,0.3,5.7,4c0,3.6-2.8,4-5.7,4c-7.5,0-14.9,0-22.6,0c-0.9,4.3-0.4,8.4-0.4,13c7,0,13.6,0,20.2,0c3.1,0,6.6-0.2,6.5,4.1
		c-0.1,3.9-3.3,3.9-6.3,3.9C233,240,226.4,240,219.3,240z"/>
	<path class="st1" d="M23.3,243.3c0,4.7,0,9.3,0,13.9c0,3.5-1,6.5-5,6.7c-4.4,0.1-5.5-3-5.5-6.7c0-13.1,0-26.3,0-39.4
		c0-4.9,2.4-7,7.1-6.8c7,0.3,14-0.7,20.9,0.6c7.4,1.5,11.6,6.7,11.9,14.5c0.2,8.2-3.6,13.6-10.9,15.8
		C35.8,243.7,29.8,242.5,23.3,243.3z M23.6,234.8c4.4,0.2,8.5,0.7,12.5-0.4c4-1.1,5.8-3.7,5.7-7.7c-0.1-4-2.2-6.5-6.1-7.3
		c-3.9-0.7-7.9-0.5-12.1-0.2C23.1,224.5,23.1,229.5,23.6,234.8z"/>
	<path class="st1" d="M119.9,231.8c3.3-5.3,6.4-10.2,9.5-15.1c0.8-1.3,1.5-2.6,2.4-3.8c1.8-2.5,4-4.1,7.1-2.1c2.9,1.9,2.5,4.5,1,7
		c-3.5,5.6-6.9,11.3-10.8,16.7c-3.1,4.2-4.6,8.6-4.1,13.8c0.3,3.3,0.1,6.6,0,10c-0.1,3.2-1.7,5.5-5.1,5.6c-3.5,0.1-5-2.2-5.4-5.3
		c-0.1-0.5-0.2-1-0.1-1.5c2.4-12.7-3.1-22.8-10.4-32.4c-1.7-2.2-3-4.8-4.4-7.2c-1.5-2.7-1.5-5.2,1.5-6.8c2.9-1.6,5.2-0.5,6.8,2
		c2.9,4.5,5.6,9,8.5,13.5C117.3,227.9,118.4,229.5,119.9,231.8z"/>
	<path class="st1" d="M335.1,219c0,11.3,0,22,0,32.6c0,1.5,0,3,0,4.5c0,3.9-0.3,7.9-5.4,7.8c-4.8,0-5.1-3.9-5.1-7.6
		c0-10.6,0-21.3,0-31.9c0-1.6,0.4-3.3-0.7-5.4c-3.6,0-7.3,0.1-11.1,0c-2.5,0-4.8-0.7-4.9-3.8c-0.1-3.3,2.3-4.2,5-4.2
		c11.3-0.1,22.6,0,33.9,0c2.7,0,5.2,0.8,5.2,4.1c-0.1,3.2-2.7,3.9-5.3,3.9C342.9,219,339.3,219,335.1,219z"/>
	<path class="st0" d="M100,75.5c1.5,1,2.5,2.4,1.8,4.2c-5.8,14.9-3.6,29.8,0.3,44.5c5.2,19.6,3.9,39.6,3.9,59.5c0,3,0,6,0,9
		c-1.8,0.2-3.6,0.4-6-0.4c0-7.6-0.5-15.4,0.1-23.1c1.5-18.2-1.3-35.8-5.9-53.2c-2.6-9.9-2.8-19.6,0.3-29.4c0.8-2.5,1.3-5.2,1.5-7.8
		C96.3,76.1,97.6,75.2,100,75.5z"/>
	<path class="st1" d="M237.5,93.1c-6.9,0-13.5,0-20.2,0c-16,0-32-0.1-48,0.1c-3.1,0-4.9-0.8-6.1-3.7c-1.8-4.4-4.8-8-8.5-10.9
		c-3.7-2.9-6.4-2.5-9.3,1.3c-0.6,0.8-1.2,1.6-1.8,2.4c-3.7,4.7-7,4.4-10.1-0.8c-2.1-3.4-1.7-7.1-1.2-10.7c0.5-3.2,0.7-6.3,0.1-9.4
		c-1.5-7.9,2.2-16.1,9.1-20.5c1.1-0.7,2.2-0.7,3.3-0.7c28.2,0,56.3,0.1,84.5,0.1c4.8,0,9.4,0.3,11.8,5.4c0.3,0.7,1.1,1.4,1.8,1.6
		c6.6,1.4,6.4,6.2,6.1,11.4c-0.3,4.5,0,9-0.1,13.5c0,5,1.3,10.1-6,11.9C239.5,84.9,238.4,89.3,237.5,93.1z M190.9,46.4
		c-11.4,0-20.8,9.5-20.6,20.7c0.2,11.3,9.7,20.6,21,20.4c11.1-0.2,20.3-9.5,20.3-20.5C211.6,55.7,202.3,46.4,190.9,46.4z
		 M235.2,52.8c0,0,0,0.1,0,0.1c-2,0-4-0.1-6,0c-1.3,0.1-2.2,0.7-2.2,2.2c0,1.2,0.1,2.5,1.6,2.6c4,0.4,7.9,0.8,11.9,0.3
		c1.6-0.2,2.3-1.3,2.2-2.8c-0.1-1.5-0.9-2.5-2.6-2.4C238.5,52.8,236.8,52.8,235.2,52.8z"/>
	<path class="st1" d="M235.7,111.4c-0.9,7.6-2.2,14.8-8.9,19.5c-3.5,2.5-6.8,3.4-11.1,2.1c-17.5-5.5-35.2-10.8-52.7-16.1
		c-0.8-0.2-1.5-0.7-2.3-1.1c0.3-3.2,1.6-5,4.9-5c23,0.1,46,0.1,68.9,0.1C234.8,111,235.1,111.2,235.7,111.4z"/>
	<path class="st1" d="M153.2,127.8c2.3-7.1,2.9-7.4,9-5.5c18.5,5.7,37,11.4,55.5,17.1c3.7,1.1,7.2,2,9.4-2.4c0.3-0.6,1.2-1.2,2-1.4
		c7.2-1.5,9-7,10-13.2c0.4-2.6,1.1-5.2,2-7.7c1.3-3.7,1.8-3.8,7.5-3c-3.7,13.2-7.3,26.3-11.1,39.8
		C209.2,143.5,181.3,135.7,153.2,127.8z"/>
	<path class="st1" d="M148.2,135.1c2.5,11.2,13.1,16,16.6,25.9c-4.5,2.3-8.3,2.1-12.2,1c-6.7-1.8-8.9-4.9-8.7-11.8
		C144,145.3,144.9,140.6,148.2,135.1z"/>
	<path class="st1" d="M154.6,133.9c23.1,6.6,24.2,7.3,25.2,15C168.9,153.8,159.1,148.2,154.6,133.9z"/>
	<path class="st0" d="M190.9,46.4c11.4,0,20.7,9.2,20.7,20.6c-0.1,11.1-9.2,20.3-20.3,20.5c-11.3,0.2-20.8-9.1-21-20.4
		C170.1,55.9,179.5,46.5,190.9,46.4z M190.8,81.9c7.6,0.1,14.7-6.8,15-14.6c0.3-7.8-6.9-15.2-14.8-15.3c-7.6-0.1-14.7,6.8-15,14.5
		C175.8,74.4,183,81.8,190.8,81.9z"/>
	<path class="st0" d="M235.2,52.8c1.7,0,3.3,0,5,0c1.7,0,2.5,1,2.6,2.4c0.1,1.5-0.6,2.6-2.2,2.8c-4,0.5-8,0.1-11.9-0.3
		c-1.5-0.1-1.6-1.4-1.6-2.6c0.1-1.4,0.9-2.1,2.2-2.2c2-0.1,4,0,6,0C235.2,52.9,235.2,52.8,235.2,52.8z"/>
	<path class="st1" d="M190.8,81.9c-7.8-0.1-15-7.5-14.7-15.3c0.2-7.8,7.3-14.6,15-14.5c7.9,0.1,15,7.5,14.8,15.3
		C205.5,75.1,198.4,82,190.8,81.9z"/>
</g>
</svg>
